<?xml version="1.0" encoding="UTF-8"?>
<svg xmlns="http://www.w3.org/2000/svg" width="1024" height="1024" viewBox="0 0 1024 1024">
  <g fill="#000000" fill-rule="evenodd">
    <path d="M 784.00 533.00 L 784.00 535.00 L 788.00 535.00 L 788.00 533.00 Z"/>
    <path d="M 654.00 265.00 L 648.00 265.00 L 638.00 269.00 L 625.00 284.00 L 526.00 462.00 L 522.00 462.00 L 419.00 268.00 L 388.00 269.00 L 388.00 271.00 L 397.00 273.00 L 404.00 281.00 L 515.00 496.00 L 518.00 497.00 L 518.00 501.00 L 507.00 522.00 L 499.00 546.00 L 495.00 568.00 L 494.00 588.00 L 496.00 608.00 L 504.00 636.00 L 522.00 666.00 L 541.00 684.00 L 566.00 699.00 L 590.00 707.00 L 616.00 711.00 L 655.00 710.00 L 679.00 705.00 L 709.00 692.00 L 729.00 675.00 L 734.00 676.00 L 733.00 684.00 L 723.00 705.00 L 709.00 725.00 L 694.00 741.00 L 669.00 760.00 L 639.00 775.00 L 615.00 782.00 L 592.00 786.00 L 556.00 786.00 L 520.00 780.00 L 490.00 770.00 L 479.00 758.00 L 467.00 753.00 L 454.00 744.00 L 437.00 737.00 L 416.00 718.00 L 397.00 694.00 L 382.00 669.00 L 374.00 647.00 L 372.00 647.00 L 378.00 668.00 L 401.00 708.00 L 424.00 735.00 L 438.00 748.00 L 446.00 761.00 L 452.00 766.00 L 467.00 771.00 L 477.00 771.00 L 498.00 780.00 L 516.00 785.00 L 549.00 790.00 L 595.00 789.00 L 613.00 786.00 L 656.00 772.00 L 681.00 759.00 L 711.00 736.00 L 736.00 709.00 L 769.00 659.00 L 767.00 645.00 L 767.00 558.00 L 771.00 544.00 L 778.00 537.00 L 782.00 536.00 L 782.00 534.00 L 708.00 533.00 L 708.00 535.00 L 722.00 537.00 L 731.00 542.00 L 739.00 554.00 L 740.00 607.00 L 737.00 661.00 L 718.00 682.00 L 707.00 690.00 L 693.00 697.00 L 665.00 704.00 L 638.00 704.00 L 619.00 700.00 L 595.00 690.00 L 579.00 679.00 L 562.00 663.00 L 545.00 638.00 L 537.00 618.00 L 532.00 592.00 L 531.00 564.00 L 534.00 538.00 L 543.00 506.00 L 557.00 476.00 L 569.00 458.00 L 584.00 441.00 L 614.00 418.00 L 620.00 419.00 L 620.00 548.00 L 618.00 584.00 L 614.00 602.00 L 609.00 614.00 L 612.00 613.00 L 631.00 581.00 L 639.00 572.00 L 653.00 565.00 L 668.00 563.00 L 668.00 561.00 L 663.00 561.00 L 654.00 557.00 L 647.00 550.00 L 642.00 533.00 L 641.00 443.00 L 645.00 442.00 L 648.00 436.00 L 648.00 420.00 L 646.00 417.00 L 641.00 416.00 L 641.00 406.00 L 643.00 404.00 L 663.00 398.00 L 691.00 396.00 L 712.00 399.00 L 732.00 406.00 L 745.00 414.00 L 761.00 430.00 L 769.00 443.00 L 774.00 459.00 L 775.00 469.00 L 777.00 469.00 L 779.00 420.00 L 761.00 409.00 L 734.00 399.00 L 710.00 394.00 L 680.00 393.00 L 662.00 395.00 L 648.00 399.00 L 641.00 398.00 L 641.00 281.00 L 645.00 272.00 L 654.00 267.00 Z M 619.00 312.00 L 619.00 408.00 L 578.00 433.00 L 550.00 458.00 L 531.00 481.00 L 527.00 481.00 L 526.00 476.00 L 528.00 475.00 L 534.00 461.00 L 557.00 422.00 L 614.00 313.00 Z"/>
    <path d="M 392.00 203.00 L 363.00 203.00 L 336.00 210.00 L 316.00 222.00 L 304.00 234.00 L 296.00 248.00 L 291.00 268.00 L 292.00 288.00 L 295.00 299.00 L 302.00 312.00 L 321.00 334.00 L 353.00 357.00 L 408.00 391.00 L 405.00 468.00 L 402.00 495.00 L 397.00 508.00 L 392.00 513.00 L 382.00 516.00 L 382.00 518.00 L 427.00 518.00 L 427.00 516.00 L 421.00 514.00 L 417.00 510.00 L 413.00 495.00 L 411.00 442.00 L 412.00 398.00 L 419.00 400.00 L 434.00 415.00 L 449.00 439.00 L 456.00 468.00 L 454.00 491.00 L 450.00 505.00 L 444.00 517.00 L 431.00 535.00 L 419.00 546.00 L 396.00 559.00 L 370.00 566.00 L 348.00 567.00 L 330.00 565.00 L 308.00 558.00 L 287.00 546.00 L 269.00 529.00 L 255.00 507.00 L 249.00 488.00 L 248.00 460.00 L 250.00 449.00 L 262.00 426.00 L 278.00 411.00 L 278.00 409.00 L 274.00 410.00 L 256.00 425.00 L 249.00 433.00 L 239.00 450.00 L 233.00 478.00 L 236.00 500.00 L 246.00 522.00 L 267.00 544.00 L 290.00 558.00 L 322.00 568.00 L 334.00 570.00 L 360.00 570.00 L 376.00 568.00 L 398.00 562.00 L 421.00 551.00 L 434.00 541.00 L 454.00 518.00 L 462.00 502.00 L 468.00 480.00 L 469.00 448.00 L 461.00 417.00 L 455.00 405.00 L 441.00 385.00 L 424.00 368.00 L 411.00 358.00 L 410.00 329.00 L 408.00 329.00 L 408.00 349.00 L 406.00 352.00 L 402.00 352.00 L 369.00 330.00 L 354.00 316.00 L 342.00 311.00 L 333.00 304.00 L 316.00 286.00 L 310.00 273.00 L 308.00 264.00 L 309.00 249.00 L 318.00 231.00 L 333.00 217.00 L 347.00 210.00 L 371.00 205.00 L 393.00 207.00 L 415.00 218.00 L 436.00 241.00 L 445.00 257.00 L 449.00 269.00 L 451.00 269.00 L 441.00 217.00 L 431.00 216.00 L 409.00 207.00 Z"/>
  </g>
</svg>